<?xml version="1.0" encoding="UTF-8"?>
<svg id="Layer_2" data-name="Layer 2" xmlns="http://www.w3.org/2000/svg" xmlns:xlink="http://www.w3.org/1999/xlink" viewBox="0 0 1024 1024">
  <defs>
    <style>
      .cls-1 {
        fill: url(#linear-gradient-2);
      }

      .cls-2 {
        fill: #8be293;
      }

      .cls-3 {
        fill: none;
      }

      .cls-4 {
        fill: url(#linear-gradient);
      }
    </style>
    <linearGradient id="linear-gradient" x1="0" y1="648.32" x2="1024" y2="648.32" gradientUnits="userSpaceOnUse">
      <stop offset="0" stop-color="#23ca25"/>
      <stop offset=".17" stop-color="#22c627"/>
      <stop offset=".46" stop-color="#18c01e"/>
      <stop offset=".85" stop-color="#18c01e"/>
      <stop offset="1" stop-color="#15a921"/>
    </linearGradient>
    <linearGradient id="linear-gradient-2" x1="260.84" y1="419.97" x2="763.16" y2="419.97" xlink:href="#linear-gradient"/>
  </defs>
  <g id="Layer_1-2" data-name="Layer 1">
    <g>
      <g>
        <path class="cls-4" d="M108.04,670.77c0,11.95-3.31,20.78-9.92,26.49-6.61,5.72-16.74,8.57-30.37,8.57H23.17c-10.34,0-18.71-8.38-18.71-18.71v-4.89h59.67c2.92,0,5.48-.23,7.69-.69,2.1-.36,3.74-1.02,4.92-2,2.26-1.64,3.38-4.31,3.38-8s-.95-6.35-2.84-8.24c-.2-.2-.42-.38-.66-.53-1.07-.69-2.36-1.17-3.88-1.45-1.79-.31-4.15-.46-7.07-.46h-27.3c-12.76,0-22.45-2.74-29.07-8.23-6.2-5.54-9.3-14.1-9.3-25.68,0-12.25,3.31-21.32,9.92-27.22,6.51-5.79,16.66-8.69,30.45-8.69h43.64c10.42,0,18.87,8.45,18.87,18.87v4.89l-59.06,.08c-5.9,0-10,1-12.3,3-2.31,1.74-3.46,4.87-3.46,9.38,0,3.01,.85,5.39,2.54,7.16,.2,.2,.41,.39,.65,.55,2.28,1.58,5.37,2.37,9.27,2.37h30.53c13.33,0,22.82,2.6,28.49,7.81,5.66,5.2,8.5,13.75,8.5,25.64Zm93.58,30.17c0,2.7-2.19,4.89-4.89,4.89h-54.32c-8.2,0-14.71-2.2-19.53-6.61-4.87-4.31-7.31-10.59-7.31-18.84,0-9.89,2.68-16.99,8.04-21.3,5.36-4.31,14.03-6.46,26.03-6.46h19.65c4.46,0,6.7-5.59,3.32-8.49-.07-.06-.13-.11-.2-.17-.15-.12-.32-.24-.48-.34-2.52-1.53-7.08-2.3-13.67-2.3h-32.4c-2.7,0-4.89-2.19-4.89-4.89v-10.82c0-2.7,2.19-4.89,4.89-4.89h40.47c11.53,0,20.3,2.67,26.3,8,6,5.33,9,13.41,9,24.22v48.01Zm-36.19-86.07h-3.97c-1.13,0-2.22-.39-3.1-1.1l-19.08-15.59c-3.56-2.91-1.51-8.68,3.1-8.68h12.24c1.6,0,3.11,.79,4.02,2.1l10.82,15.59c2.25,3.25-.07,7.68-4.02,7.68Zm10.35,65.77v-2.98c0-2.7-2.19-4.89-4.89-4.89h-18.25c-4.61,0-7.61,.45-9,1.35-1.38,.9-2.08,2.76-2.08,5.57,0,.47,.02,.92,.07,1.34,.25,2.13,1.92,3.84,4.05,4.18,.05,0,.1,.02,.15,.02,1.36,.21,3.09,.31,5.19,.31h19.87c2.7,0,4.89-2.19,4.89-4.89Zm113.2,25.27h-15.42c-2.7,0-4.89-2.19-4.89-4.89v-46.24c0-3.99-.41-6.92-1.24-8.78-.52-1.17-1.53-2.05-2.73-2.52-1.85-.72-4.55-1.08-8.1-1.08h-10.25c-2.7,0-4.89,2.19-4.89,4.89v53.73c0,2.7-2.19,4.89-4.89,4.89h-15.43c-2.7,0-4.89-2.19-4.89-4.89v-75.49c0-2.7,2.19-4.89,4.89-4.89h37.01c12.81,0,21.95,2.5,27.41,7.5s8.19,13.06,8.19,24.18l.14,48.69c0,2.71-2.19,4.91-4.89,4.91Zm142.24-43.83c0,13.33-3.61,23.95-10.84,31.87-7.23,7.92-17.35,11.88-30.37,11.88h-37.94c-2.7,0-4.89-2.19-4.89-4.89v-89.66c0-11.18,9.07-20.25,20.25-20.25h4.89v29.68s16.22,0,16.22,0c8.2,0,14.92,1,20.15,3,5.18,1.95,9.64,5.28,13.38,10,1.38,1.79,2.66,3.74,3.84,5.84,1.13,2.2,2.15,4.61,3.08,7.23,.77,2.56,1.36,5.1,1.77,7.61,.31,2.51,.46,5.08,.46,7.69Zm-26.14,1.77c0-8-1.67-13.64-5-16.92-3.08-3.33-8.72-5-16.92-5l-6.02,.09c-2.68,.04-4.82,2.22-4.82,4.89v32.8c0,2.7,2.19,4.89,4.89,4.89h7.72c7.33,0,12.53-1.59,15.61-4.77,3.02-3.02,4.54-8.36,4.54-15.99Zm117.57,37.09c0,2.7-2.19,4.89-4.89,4.89h-54.32c-8.2,0-14.71-2.2-19.53-6.61-4.87-4.31-7.31-10.59-7.31-18.84,0-9.89,2.68-16.99,8.04-21.3,5.36-4.31,14.03-6.46,26.03-6.46h19.65c4.46,0,6.7-5.59,3.32-8.49-.07-.06-.13-.11-.2-.17-.15-.12-.32-.24-.48-.34-2.52-1.53-7.08-2.3-13.67-2.3h-32.4c-2.7,0-4.89-2.19-4.89-4.89v-10.82c0-2.7,2.19-4.89,4.89-4.89h40.47c11.53,0,20.3,2.67,26.3,8,6,5.33,9,13.41,9,24.22v48.01Zm-25.84-20.3v-2.98c0-2.7-2.19-4.89-4.89-4.89h-18.25c-4.61,0-7.61,.45-9,1.35-1.38,.9-2.08,2.76-2.08,5.57,0,.47,.02,.92,.07,1.34,.25,2.13,1.92,3.84,4.05,4.18,.05,0,.1,.02,.15,.02,1.36,.21,3.09,.31,5.19,.31h19.87c2.7,0,4.89-2.19,4.89-4.89Zm2.81-82.47l-18.99,15.59c-.88,.72-1.97,1.11-3.11,1.11h-4.17c-3.94,0-6.27-4.42-4.03-7.67l10.72-15.59c.91-1.33,2.42-2.12,4.03-2.12h12.43c4.6,0,6.66,5.76,3.11,8.68Zm110.39,107.74h-15.42c-2.7,0-4.89-2.19-4.89-4.89v-46.24c0-3.99-.41-6.92-1.24-8.78-.52-1.17-1.53-2.05-2.73-2.52-1.85-.72-4.55-1.08-8.1-1.08h-10.25c-2.7,0-4.89,2.19-4.89,4.89v53.73c0,2.7-2.19,4.89-4.89,4.89h-15.43c-2.7,0-4.89-2.19-4.89-4.89v-75.49c0-2.7,2.19-4.89,4.89-4.89h37.01c12.81,0,21.95,2.5,27.41,7.5s8.19,13.06,8.19,24.18l.14,48.69c0,2.71-2.19,4.91-4.89,4.91Zm142.24-43.83c0,13.33-3.61,23.95-10.84,31.87-7.23,7.92-17.35,11.88-30.37,11.88h-37.94c-2.7,0-4.89-2.19-4.89-4.89v-89.66c0-11.18,9.07-20.25,20.25-20.25h4.89v29.68h16.22c8.2,0,14.92,1,20.15,3,5.18,1.95,9.64,5.28,13.38,10,1.38,1.79,2.66,3.74,3.84,5.84,1.13,2.2,2.15,4.61,3.08,7.23,.77,2.56,1.36,5.1,1.77,7.61,.31,2.51,.46,5.08,.46,7.69Zm-26.14,1.77c0-8-1.67-13.64-5-16.92-3.08-3.33-8.72-5-16.92-5l-6.02,.09c-2.68,.04-4.82,2.22-4.82,4.89v32.8c0,2.7,2.19,4.89,4.89,4.89h7.72c7.33,0,12.53-1.59,15.61-4.77,3.02-3.02,4.54-8.36,4.54-15.99Zm111.96,37.09c0,2.7-2.19,4.89-4.89,4.89h-37.09c-12.3,0-21.22-2.51-26.76-7.54-5.69-5.02-8.54-13.1-8.54-24.22v-48.55c0-2.7,2.19-4.89,4.89-4.89h15.2c2.7,0,4.89,2.19,4.89,4.89v46.78c0,4.92,.77,8.07,2.31,9.46,1.33,1.49,4.54,2.23,9.61,2.23h10.33c2.7,0,4.89-2.19,4.89-4.89v-53.57c0-2.7,2.19-4.89,4.89-4.89h15.36c2.7,0,4.89,2.19,4.89,4.89v75.41Zm99.12-37.78c0,13.33-4.05,23.99-12.15,31.99-8.05,8-18.87,12-32.45,12s-24.48-4-32.53-12c-8.1-7.84-12.15-18.51-12.15-31.99s4.05-23.86,12.15-31.91c7.95-8,18.79-12,32.53-12s24.4,3.95,32.45,11.84c8.1,7.95,12.15,18.63,12.15,32.06Zm-26.41-48.29h-3.89c-1.19,0-2.33-.43-3.23-1.21l-7.86-6.89c-1.84-1.61-4.59-1.62-6.44,0l-7.93,6.91c-.89,.78-2.03,1.2-3.21,1.2h-3.65c-3.94,0-6.26-4.41-4.04-7.66l10.68-15.59c.91-1.33,2.42-2.13,4.04-2.13h14.9c1.62,0,3.13,.8,4.04,2.14l10.63,15.59c2.21,3.25-.11,7.65-4.04,7.65Zm.26,48.29c0-7.12-1.74-12.69-5.23-16.69-3.13-4-7.59-6-13.38-6s-10.2,2-13.38,6c-3.23,3.69-4.84,9.25-4.84,16.69,0,3.79,.38,7,1.15,9.61,.72,2.77,1.95,5.2,3.69,7.31,3.28,3.9,7.74,5.84,13.38,5.84s10.25-1.95,13.38-5.84c3.49-4,5.23-9.64,5.23-16.92Zm108.05,42.75h-15.42c-2.7,0-4.89-2.19-4.89-4.89v-46.24c0-3.99-.41-6.92-1.24-8.78-.52-1.17-1.53-2.05-2.72-2.52-1.85-.72-4.55-1.08-8.1-1.08h-10.25c-2.7,0-4.89,2.19-4.89,4.89v53.73c0,2.7-2.19,4.89-4.89,4.89h-15.43c-2.7,0-4.89-2.19-4.89-4.89v-75.49c0-2.7,2.19-4.89,4.89-4.89h37.01c12.81,0,21.95,2.5,27.41,7.5,5.46,5,8.19,13.06,8.19,24.18l.14,48.69c0,2.71-2.19,4.91-4.89,4.91Z"/>
        <path class="cls-1" d="M554.61,420.15h-41.29v-103.29h-8.78c-20.5,0-37.11,16.62-37.11,37.11v149.72c0,10.7,8.68,19.38,19.38,19.38h69.42c13.99,0,26.65-5.67,35.82-14.84,9.17-9.17,14.84-21.83,14.84-35.82,0-28.86-23.4-52.27-52.27-52.27Zm-29.62,94.91c-6.47,.1-12.98-2.32-17.92-7.27l-25.56-25.57c-3.05-3.04-4.58-7.03-4.61-11.02,.03-3.99,1.56-7.98,4.61-11.02l25.56-25.57c4.94-4.94,11.45-7.36,17.92-7.27h.23c1.84,.04,3.67,.29,5.46,.74,1.5,.38,2.96,.89,4.38,1.54,2.58,1.2,4.99,2.86,7.12,4.98l25.11,25.11c3.19,3.18,4.88,7.3,5.07,11.47-.2,4.17-1.89,8.29-5.07,11.47l-25.11,25.11c-2.12,2.13-4.53,3.79-7.12,4.98-1.42,.65-2.88,1.17-4.38,1.54-1.79,.45-3.63,.7-5.46,.74h-.23Zm185.91-94.91h-41.29v-103.29h-8.78c-20.5,0-37.11,16.62-37.11,37.11v149.72c0,10.7,8.68,19.38,19.38,19.38h69.42c13.99,0,26.65-5.67,35.82-14.84,9.17-9.17,14.84-21.83,14.84-35.82,0-28.86-23.4-52.27-52.27-52.27Zm-29.62,94.91c-6.47,.1-12.98-2.32-17.92-7.27l-25.56-25.57c-3.05-3.04-4.58-7.03-4.61-11.02,.03-3.99,1.56-7.98,4.61-11.02l25.56-25.57c4.94-4.94,11.45-7.36,17.92-7.27h.23c1.84,.04,3.67,.29,5.46,.74,1.5,.38,2.96,.89,4.38,1.54,2.58,1.2,4.99,2.86,7.12,4.98l25.11,25.11c3.19,3.18,4.88,7.3,5.07,11.47-.2,4.17-1.89,8.29-5.07,11.47l-25.11,25.11c-2.12,2.13-4.53,3.79-7.12,4.98-1.42,.65-2.88,1.17-4.38,1.54-1.79,.45-3.63,.7-5.46,.74h-.23Zm-230.69-161.21v51.02l-41.52-42.37c-.53-.75-1.13-1.45-1.8-2.12l-13.74-13.74-14.19-14.2c-.27-.27-.56-.54-.84-.8-.01-.02-.03-.03-.04-.04-.24-.22-.48-.43-.72-.63-.06-.06-.12-.11-.19-.16-.21-.17-.42-.35-.63-.51-.1-.08-.2-.16-.3-.23,0,0-.01-.01-.02-.01-.25-.2-.51-.38-.76-.56-.3-.22-.62-.43-.93-.63-.3-.2-.61-.39-.92-.57-.03-.02-.06-.03-.08-.04-.3-.18-.61-.35-.92-.52-.3-.16-.59-.31-.9-.46-.06-.03-.12-.06-.19-.09-.26-.12-.52-.25-.79-.36-.08-.04-.17-.08-.26-.11-.23-.1-.47-.2-.71-.29-.42-.17-.85-.33-1.29-.47-.26-.09-.53-.17-.8-.25-.41-.13-.82-.25-1.25-.35-.24-.07-.48-.12-.72-.17-.11-.02-.21-.05-.33-.07-.35-.07-.7-.14-1.04-.2-.35-.06-.71-.12-1.06-.16h-.01c-.31-.04-.63-.08-.95-.11-.85-.08-1.71-.12-2.56-.12h-8.5c-6.81,.1-13.59,2.75-18.78,7.94l-27.45,27.45c-3.47,3.48-5.33,7.98-5.54,12.54,.22,4.56,2.07,9.06,5.54,12.54l27.45,27.44c4.13,4.13,9.25,6.65,14.6,7.56h-42.07c-25.11-3.09-44.54-24.49-44.54-50.43v-1.19c0-28.38,23.01-51.39,51.39-51.39h101.46c20.38,0,36.89,16.52,36.89,36.89Zm0,116.55v1.19c0,28.38-23.01,51.39-51.39,51.39h-101.46c-20.38,0-36.89-16.52-36.89-36.89v-51.02l41.52,42.37c.53,.75,1.13,1.45,1.8,2.12l13.74,13.74,14.19,14.2c.27,.27,.56,.54,.84,.8,.01,.02,.03,.03,.04,.04,.24,.22,.48,.43,.72,.63,.06,.06,.12,.11,.19,.16,.21,.17,.42,.35,.63,.51,.1,.08,.2,.16,.3,.23,0,0,.01,.01,.02,.01,.25,.2,.51,.38,.76,.56,.3,.22,.62,.43,.93,.63,.3,.2,.61,.39,.92,.57,.03,.02,.06,.03,.08,.04,.3,.18,.61,.35,.92,.52,.3,.16,.59,.31,.9,.46,.06,.03,.12,.06,.19,.09,.26,.12,.52,.25,.79,.36,.08,.04,.17,.08,.26,.11,.23,.1,.47,.2,.71,.29,.42,.17,.85,.33,1.29,.47,.26,.09,.53,.17,.8,.25,.41,.13,.82,.25,1.25,.35,.24,.07,.48,.12,.72,.17,.11,.02,.21,.05,.33,.07,.35,.07,.7,.14,1.04,.2,.35,.06,.71,.12,1.06,.16h.01c.31,.04,.63,.08,.95,.11,.85,.08,1.71,.12,2.56,.12h8.5c6.81-.1,13.59-2.75,18.78-7.94l27.45-27.45c3.47-3.48,5.33-7.98,5.54-12.54-.22-4.56-2.07-9.06-5.54-12.54l-27.45-27.44c-4.13-4.13-9.25-6.65-14.6-7.56h42.07c25.11,3.09,44.54,24.49,44.54,50.43Z"/>
        <path class="cls-2" d="M584.47,471.21c-.2,4.17-1.89,8.29-5.07,11.47l-25.11,25.11c-4.75,4.75-10.96,7.18-17.19,7.27h-11.88c1.84-.04,3.67-.29,5.46-.74,1.5-.38,2.96-.89,4.38-1.54,2.58-1.2,4.99-2.86,7.12-4.98l25.11-25.11c3.19-3.18,4.88-7.3,5.07-11.47-.2-4.17-1.89-8.29-5.07-11.47l-25.11-25.11c-2.12-2.13-4.53-3.79-7.12-4.98-1.42-.65-2.88-1.17-4.38-1.54-1.79-.45-3.63-.7-5.46-.74h11.88c6.23,.09,12.44,2.51,17.19,7.27l25.11,25.11c3.18,3.18,4.88,7.3,5.07,11.47Z"/>
        <path class="cls-2" d="M740.76,471.21c-.2,4.17-1.89,8.29-5.07,11.47l-25.11,25.11c-4.75,4.75-10.96,7.18-17.19,7.27h-11.88c1.84-.04,3.67-.29,5.46-.74,1.5-.38,2.96-.89,4.38-1.54,2.58-1.2,4.99-2.86,7.12-4.98l25.11-25.11c3.19-3.18,4.88-7.3,5.07-11.47-.2-4.17-1.89-8.29-5.07-11.47l-25.11-25.11c-2.12-2.13-4.53-3.79-7.12-4.98-1.42-.65-2.88-1.17-4.38-1.54-1.79-.45-3.63-.7-5.46-.74h11.88c6.23,.09,12.44,2.51,17.19,7.27l25.11,25.11c3.18,3.18,4.88,7.3,5.07,11.47Z"/>
        <g>
          <path class="cls-2" d="M363.64,324.72c-1.05,.13-2.09,.33-3.12,.58-1.64,.42-3.24,.98-4.79,1.69-2.82,1.31-5.46,3.12-7.78,5.44l-27.44,27.45c-3.49,3.48-5.33,7.98-5.54,12.54,.2,4.28,1.85,8.52,4.94,11.9,.2,.21,.4,.43,.61,.63l27.44,27.44c.62,.63,1.27,1.22,1.95,1.77l5.82,5.79h-8.26c-5.35-.91-10.47-3.43-14.6-7.56l-27.45-27.44c-3.47-3.48-5.33-7.98-5.54-12.54,.22-4.56,2.07-9.06,5.54-12.54l27.45-27.45c5.2-5.19,11.98-7.84,18.78-7.94h8.5c.85,0,1.71,.04,2.56,.12,.32,.03,.63,.07,.95,.11Z"/>
          <path class="cls-2" d="M347.78,515.21c1.05-.13,2.09-.33,3.12-.58,1.64-.42,3.24-.98,4.79-1.69,2.82-1.31,5.46-3.12,7.78-5.44l27.44-27.45c3.49-3.48,5.33-7.98,5.54-12.54-.2-4.28-1.85-8.52-4.94-11.9-.2-.21-.4-.43-.61-.63l-27.44-27.44c-.62-.63-1.27-1.22-1.95-1.77l-5.82-5.79h8.26c5.35,.91,10.47,3.43,14.6,7.56l27.45,27.44c3.47,3.48,5.33,7.98,5.54,12.54-.22,4.56-2.07,9.06-5.54,12.54l-27.45,27.45c-5.2,5.19-11.98,7.84-18.78,7.94h-8.5c-.85,0-1.71-.04-2.56-.12-.32-.03-.63-.07-.95-.11Z"/>
        </g>
      </g>
      <rect class="cls-3" width="1024" height="1024"/>
    </g>
  </g>
</svg>